<svg id="svg" version="1.1" xmlns="http://www.w3.org/2000/svg" xmlns:xlink="http://www.w3.org/1999/xlink" width="400" height="400" viewBox="0, 0, 400,400"><g id="svgg"><path id="path0" d="M324.833 200.000 L 324.833 250.000 328.250 250.000 L 331.667 250.000 331.667 200.000 L 331.667 150.000 328.250 150.000 L 324.833 150.000 324.833 200.000 " stroke="none" fill="#fcec04" fill-rule="evenodd"></path><path id="path1" d="M85.167 165.003 C 75.544 166.324,70.336 172.413,68.727 184.223 C 68.382 186.752,68.218 204.290,68.482 210.500 C 69.120 225.564,73.137 232.403,82.638 234.601 C 90.126 236.334,94.713 234.492,97.521 228.625 C 97.729 228.190,97.950 227.833,98.011 227.833 C 98.150 227.833,99.941 233.032,100.092 233.875 L 100.204 234.500 104.102 234.500 L 108.000 234.500 108.000 217.250 L 108.000 200.000 98.000 200.000 L 88.000 200.000 88.000 203.750 L 88.000 207.500 92.941 207.500 L 97.883 207.500 97.785 211.292 C 97.603 218.391,96.428 222.514,93.999 224.572 C 88.697 229.067,81.480 226.634,79.699 219.750 C 78.753 216.095,78.750 216.039,78.750 199.250 C 78.750 182.122,78.714 182.779,79.842 179.275 C 81.229 174.967,85.064 172.687,89.893 173.296 C 95.096 173.953,96.863 176.891,97.261 185.544 L 97.374 188.005 102.395 187.961 L 107.417 187.917 107.379 185.833 C 107.173 174.319,102.464 167.171,93.865 165.322 C 92.032 164.928,87.047 164.745,85.167 165.003 M144.750 165.019 C 132.967 166.731,127.810 177.167,132.274 190.264 C 133.193 192.959,137.187 197.469,140.891 199.995 C 141.528 200.429,143.722 202.211,144.737 203.118 C 145.279 203.603,145.794 204.000,145.880 204.000 C 146.046 204.000,147.575 205.204,148.000 205.670 C 148.425 206.135,150.798 208.000,150.964 208.000 C 151.422 208.000,155.619 212.654,156.134 213.734 C 158.356 218.386,157.956 223.384,155.198 225.423 C 151.894 227.865,145.904 226.805,143.780 223.402 C 142.133 220.763,140.838 216.213,140.834 213.052 C 140.834 212.576,140.769 212.147,140.691 212.098 C 140.573 212.025,130.867 214.447,130.693 214.593 C 130.530 214.731,131.241 219.218,131.736 221.167 C 132.434 223.916,133.886 227.177,134.741 227.917 C 134.847 228.008,135.308 228.579,135.764 229.185 C 136.621 230.323,138.401 232.000,138.751 232.000 C 138.860 232.000,139.280 232.239,139.683 232.531 C 145.852 237.001,160.368 235.413,164.090 229.861 C 164.315 229.525,164.897 228.686,165.383 227.997 C 168.893 223.022,168.523 213.587,164.578 207.419 C 164.260 206.922,163.998 206.456,163.995 206.383 C 163.969 205.756,159.373 200.854,157.723 199.695 C 157.157 199.298,156.445 198.732,156.139 198.437 C 155.341 197.667,154.024 196.616,153.250 196.131 C 152.883 195.901,152.358 195.490,152.083 195.216 C 151.808 194.943,149.933 193.402,147.917 191.792 C 142.684 187.616,141.284 185.632,140.845 181.771 C 139.724 171.902,152.741 169.705,156.260 179.170 C 156.887 180.856,157.500 183.561,157.500 184.641 C 157.500 185.569,157.430 185.567,160.678 184.755 C 162.276 184.355,164.483 183.825,165.583 183.577 C 168.060 183.018,167.897 183.220,167.583 181.110 C 167.085 177.755,166.066 174.802,164.754 172.911 C 164.438 172.456,164.101 171.909,164.006 171.696 C 163.685 170.981,161.104 168.574,159.876 167.846 C 155.704 165.371,149.854 164.278,144.750 165.019 M186.917 164.931 C 183.772 165.376,181.253 166.243,179.387 167.522 C 179.003 167.785,178.625 168.000,178.545 168.000 C 177.993 168.000,175.188 171.183,174.097 173.046 C 171.092 178.177,171.656 187.296,175.319 192.833 C 175.653 193.338,176.030 193.956,176.157 194.208 C 176.390 194.667,178.005 196.313,179.248 197.358 C 179.614 197.665,180.026 198.036,180.165 198.182 C 180.537 198.573,181.987 199.700,182.750 200.190 C 183.117 200.426,183.642 200.841,183.917 201.113 C 184.532 201.722,186.738 203.497,187.417 203.931 C 187.692 204.106,188.029 204.373,188.167 204.523 C 188.304 204.674,189.694 205.810,191.255 207.048 C 197.274 211.821,199.167 214.793,199.167 219.473 C 199.167 224.231,196.770 226.715,192.167 226.731 C 186.551 226.751,183.102 222.143,182.553 213.887 C 182.497 213.046,182.398 212.271,182.332 212.165 C 182.248 212.028,180.806 212.334,177.287 213.236 C 174.577 213.931,172.309 214.500,172.247 214.500 C 172.046 214.500,172.532 218.403,172.943 220.083 C 175.414 230.189,181.622 235.071,192.000 235.070 C 203.770 235.068,210.367 227.996,209.168 216.667 C 208.906 214.190,207.996 210.639,207.242 209.151 C 205.120 204.964,201.371 201.005,195.026 196.252 C 193.685 195.247,192.189 194.043,191.750 193.617 C 191.475 193.349,190.725 192.759,190.083 192.307 C 184.674 188.489,182.463 185.063,182.465 180.500 C 182.467 175.721,185.525 172.881,190.290 173.233 C 195.186 173.596,198.568 177.810,199.107 184.221 C 199.210 185.443,199.239 185.520,199.567 185.429 C 200.149 185.269,205.294 184.012,207.250 183.553 C 209.539 183.016,209.395 183.207,209.085 181.117 C 207.740 172.063,203.035 166.894,194.636 165.245 C 193.306 164.984,188.053 164.770,186.917 164.931 M292.667 165.015 C 283.632 166.174,278.780 171.607,277.572 181.920 C 277.117 185.803,277.304 216.926,277.798 219.522 C 279.929 230.726,286.015 235.543,297.499 235.115 C 307.979 234.725,313.465 229.390,315.186 217.917 C 315.465 216.059,315.595 186.967,315.339 183.833 C 314.275 170.826,308.154 164.768,296.167 164.858 C 294.837 164.867,293.262 164.938,292.667 165.015 M114.000 200.000 L 114.000 234.500 119.083 234.500 L 124.167 234.500 124.167 200.000 L 124.167 165.500 119.083 165.500 L 114.000 165.500 114.000 200.000 M215.833 200.000 L 215.833 234.500 229.417 234.500 L 243.000 234.500 243.000 230.667 L 243.000 226.833 234.417 226.833 L 225.833 226.833 225.833 214.750 L 225.833 202.667 232.000 202.667 L 238.167 202.667 238.167 198.833 L 238.167 195.000 232.000 195.000 L 225.833 195.000 225.833 184.083 L 225.833 173.167 234.417 173.167 L 243.000 173.167 243.000 169.333 L 243.000 165.500 229.417 165.500 L 215.833 165.500 215.833 200.000 M260.079 165.708 C 260.036 165.823,259.982 178.554,259.959 194.000 L 259.917 222.083 259.534 223.031 C 258.507 225.572,255.726 226.833,251.149 226.833 L 250.333 226.833 250.333 230.667 L 250.333 234.500 253.458 234.500 C 265.013 234.499,268.744 231.834,270.021 222.667 C 270.165 221.638,270.237 213.623,270.285 193.375 L 270.350 165.500 265.253 165.500 C 261.328 165.500,260.138 165.548,260.079 165.708 M299.636 173.644 C 301.559 174.243,303.601 175.911,303.967 177.183 C 304.057 177.495,304.324 178.409,304.561 179.213 C 305.298 181.716,305.362 183.668,305.283 201.333 C 305.205 218.651,305.215 218.439,304.331 221.394 C 303.764 223.291,303.600 223.584,302.531 224.608 C 298.860 228.125,291.089 227.261,288.966 223.101 C 287.594 220.410,287.608 220.630,287.544 200.558 C 287.481 180.506,287.513 179.862,288.680 177.330 C 290.251 173.922,295.189 172.260,299.636 173.644 " stroke="none" fill="#4c1464" fill-rule="evenodd"></path><path id="path2" d="" stroke="none" fill="#4c1c64" fill-rule="evenodd"></path><path id="path3" d="" stroke="none" fill="#100b834" fill-rule="evenodd"></path><path id="path4" d="" stroke="none" fill="#a84834" fill-rule="evenodd"></path></g></svg>